<svg viewBox="0 0 512 512" width="512" height="512" xmlns="http://www.w3.org/2000/svg">
  <defs>
    <linearGradient id="ig" x1="15%" y1="100%" x2="85%" y2="0%">
      <stop offset="0%" stop-color="#f09433" />
      <stop offset="25%" stop-color="#e6683c" />
      <stop offset="50%" stop-color="#dc2743" />
      <stop offset="75%" stop-color="#cc2366" />
      <stop offset="100%" stop-color="#bc1888" />
    </linearGradient>
  </defs>

  <!-- Background Icon Rect -->
  <rect x="32" y="32" width="448" height="448" rx="100" fill="url(#ig)" />

  <!-- Outer Camera Box - Left Half -->
  <path d="M240 112 L168 112 C128.235 112 96 144.235 96 184 L96 328 C96 367.765 128.235 400 168 400 L240 400" fill="none" stroke="white" stroke-width="36" />

  <!-- Outer Camera Box - Right Half -->
  <path d="M272 112 L344 112 C383.765 112 416 144.235 416 184 L416 328 C416 367.765 383.765 400 344 400 L272 400" fill="none" stroke="white" stroke-width="36" />

  <!-- Inner Camera Lens - Left Half -->
  <path d="M240 192 A 64 64 0 0 0 240 320" fill="none" stroke="white" stroke-width="36" />

  <!-- Inner Camera Lens - Right Half -->
  <path d="M272 192 A 64 64 0 0 1 272 320" fill="none" stroke="white" stroke-width="36" />

  <!-- Flash/Dot -->
  <circle cx="344" cy="168" r="20" fill="white" />

  <!-- The "Split" scissors line down the middle -->
  <line x1="256" y1="48" x2="256" y2="464" stroke="white" stroke-width="12" stroke-dasharray="20, 20" />
</svg>
